<mxfile host="65bd71144e">
    <diagram id="C5RBs43oDa-KdzZeNtuy" name="Page-1">
        <mxGraphModel dx="2450" dy="896" grid="1" gridSize="10" guides="1" tooltips="1" connect="1" arrows="1" fold="1" page="1" pageScale="1" pageWidth="827" pageHeight="1169" math="0" shadow="0">
            <root>
                <mxCell id="WIyWlLk6GJQsqaUBKTNV-0"/>
                <mxCell id="WIyWlLk6GJQsqaUBKTNV-1" parent="WIyWlLk6GJQsqaUBKTNV-0"/>
                <mxCell id="bJSDkxrL3WFduaUttJcm-22" style="edgeStyle=orthogonalEdgeStyle;rounded=0;orthogonalLoop=1;jettySize=auto;html=1;exitX=1;exitY=0.5;exitDx=0;exitDy=0;entryX=0;entryY=0.5;entryDx=0;entryDy=0;entryPerimeter=0;" parent="WIyWlLk6GJQsqaUBKTNV-1" source="bJSDkxrL3WFduaUttJcm-2" target="bJSDkxrL3WFduaUttJcm-13" edge="1">
                    <mxGeometry relative="1" as="geometry"/>
                </mxCell>
                <mxCell id="bJSDkxrL3WFduaUttJcm-2" value="Data" style="shape=parallelogram;html=1;strokeWidth=2;perimeter=parallelogramPerimeter;whiteSpace=wrap;rounded=1;arcSize=12;size=0.23;" parent="WIyWlLk6GJQsqaUBKTNV-1" vertex="1">
                    <mxGeometry x="930" y="398" width="70" height="30" as="geometry"/>
                </mxCell>
                <mxCell id="bJSDkxrL3WFduaUttJcm-38" style="edgeStyle=orthogonalEdgeStyle;rounded=0;orthogonalLoop=1;jettySize=auto;html=1;exitX=0.5;exitY=1;exitDx=0;exitDy=0;exitPerimeter=0;entryX=0.5;entryY=0;entryDx=0;entryDy=0;entryPerimeter=0;" parent="WIyWlLk6GJQsqaUBKTNV-1" source="bJSDkxrL3WFduaUttJcm-3" target="bJSDkxrL3WFduaUttJcm-35" edge="1">
                    <mxGeometry relative="1" as="geometry">
                        <mxPoint x="74.66666666666663" y="350" as="targetPoint"/>
                        <Array as="points"/>
                    </mxGeometry>
                </mxCell>
                <mxCell id="bJSDkxrL3WFduaUttJcm-39" style="edgeStyle=orthogonalEdgeStyle;rounded=0;orthogonalLoop=1;jettySize=auto;html=1;exitX=0.5;exitY=1;exitDx=0;exitDy=0;exitPerimeter=0;entryX=0.5;entryY=0;entryDx=0;entryDy=0;entryPerimeter=0;" parent="WIyWlLk6GJQsqaUBKTNV-1" source="bJSDkxrL3WFduaUttJcm-3" target="bJSDkxrL3WFduaUttJcm-36" edge="1">
                    <mxGeometry relative="1" as="geometry"/>
                </mxCell>
                <mxCell id="bJSDkxrL3WFduaUttJcm-44" style="edgeStyle=orthogonalEdgeStyle;rounded=0;orthogonalLoop=1;jettySize=auto;html=1;exitX=1;exitY=0.5;exitDx=0;exitDy=0;exitPerimeter=0;" parent="WIyWlLk6GJQsqaUBKTNV-1" source="bJSDkxrL3WFduaUttJcm-3" target="bJSDkxrL3WFduaUttJcm-37" edge="1">
                    <mxGeometry relative="1" as="geometry"/>
                </mxCell>
                <mxCell id="bJSDkxrL3WFduaUttJcm-191" style="edgeStyle=orthogonalEdgeStyle;rounded=0;orthogonalLoop=1;jettySize=auto;html=1;entryX=0.5;entryY=0;entryDx=0;entryDy=0;" parent="WIyWlLk6GJQsqaUBKTNV-1" target="bJSDkxrL3WFduaUttJcm-190" edge="1">
                    <mxGeometry relative="1" as="geometry">
                        <mxPoint x="75" y="264" as="sourcePoint"/>
                        <mxPoint x="367.5" y="381.25" as="targetPoint"/>
                        <Array as="points">
                            <mxPoint x="75" y="314"/>
                            <mxPoint x="368" y="314"/>
                        </Array>
                    </mxGeometry>
                </mxCell>
                <mxCell id="bJSDkxrL3WFduaUttJcm-3" value="Webpage" style="strokeWidth=2;html=1;shape=mxgraph.flowchart.display;whiteSpace=wrap;" parent="WIyWlLk6GJQsqaUBKTNV-1" vertex="1">
                    <mxGeometry x="35" y="220" width="80" height="50" as="geometry"/>
                </mxCell>
                <mxCell id="bJSDkxrL3WFduaUttJcm-51" style="edgeStyle=orthogonalEdgeStyle;rounded=0;orthogonalLoop=1;jettySize=auto;html=1;exitX=1;exitY=0.5;exitDx=0;exitDy=0;entryX=0.082;entryY=0.312;entryDx=0;entryDy=0;entryPerimeter=0;" parent="WIyWlLk6GJQsqaUBKTNV-1" source="bJSDkxrL3WFduaUttJcm-4" target="bJSDkxrL3WFduaUttJcm-49" edge="1">
                    <mxGeometry relative="1" as="geometry"/>
                </mxCell>
                <mxCell id="bJSDkxrL3WFduaUttJcm-4" value="&lt;font style=&quot;font-size: 12px;&quot;&gt;Form&lt;/font&gt;" style="html=1;strokeWidth=2;shape=manualInput;whiteSpace=wrap;rounded=1;size=26;arcSize=11;spacingTop=12;" parent="WIyWlLk6GJQsqaUBKTNV-1" vertex="1">
                    <mxGeometry x="450" y="247.5" width="70" height="42.5" as="geometry"/>
                </mxCell>
                <mxCell id="bJSDkxrL3WFduaUttJcm-20" style="edgeStyle=orthogonalEdgeStyle;rounded=0;orthogonalLoop=1;jettySize=auto;html=1;exitX=1;exitY=0.5;exitDx=0;exitDy=0;entryX=0;entryY=0.5;entryDx=0;entryDy=0;" parent="WIyWlLk6GJQsqaUBKTNV-1" source="bJSDkxrL3WFduaUttJcm-6" target="bJSDkxrL3WFduaUttJcm-2" edge="1">
                    <mxGeometry relative="1" as="geometry">
                        <Array as="points">
                            <mxPoint x="920" y="353"/>
                            <mxPoint x="920" y="413"/>
                        </Array>
                    </mxGeometry>
                </mxCell>
                <mxCell id="bJSDkxrL3WFduaUttJcm-6" value="Model for Books" style="rounded=1;whiteSpace=wrap;html=1;absoluteArcSize=1;arcSize=14;strokeWidth=2;" parent="WIyWlLk6GJQsqaUBKTNV-1" vertex="1">
                    <mxGeometry x="810" y="335" width="100" height="35" as="geometry"/>
                </mxCell>
                <mxCell id="bJSDkxrL3WFduaUttJcm-10" style="edgeStyle=orthogonalEdgeStyle;rounded=0;orthogonalLoop=1;jettySize=auto;html=1;exitX=1;exitY=0.5;exitDx=0;exitDy=0;exitPerimeter=0;entryX=0;entryY=0.5;entryDx=0;entryDy=0;" parent="WIyWlLk6GJQsqaUBKTNV-1" source="bJSDkxrL3WFduaUttJcm-7" target="bJSDkxrL3WFduaUttJcm-6" edge="1">
                    <mxGeometry relative="1" as="geometry"/>
                </mxCell>
                <mxCell id="bJSDkxrL3WFduaUttJcm-11" style="edgeStyle=orthogonalEdgeStyle;rounded=0;orthogonalLoop=1;jettySize=auto;html=1;exitX=1;exitY=0.5;exitDx=0;exitDy=0;exitPerimeter=0;" parent="WIyWlLk6GJQsqaUBKTNV-1" source="bJSDkxrL3WFduaUttJcm-7" target="bJSDkxrL3WFduaUttJcm-8" edge="1">
                    <mxGeometry relative="1" as="geometry"/>
                </mxCell>
                <mxCell id="bJSDkxrL3WFduaUttJcm-12" style="edgeStyle=orthogonalEdgeStyle;rounded=0;orthogonalLoop=1;jettySize=auto;html=1;exitX=1;exitY=0.5;exitDx=0;exitDy=0;exitPerimeter=0;entryX=0;entryY=0.5;entryDx=0;entryDy=0;" parent="WIyWlLk6GJQsqaUBKTNV-1" source="bJSDkxrL3WFduaUttJcm-7" target="bJSDkxrL3WFduaUttJcm-9" edge="1">
                    <mxGeometry relative="1" as="geometry"/>
                </mxCell>
                <mxCell id="bJSDkxrL3WFduaUttJcm-7" value="Models" style="strokeWidth=2;html=1;shape=mxgraph.flowchart.multi-document;whiteSpace=wrap;" parent="WIyWlLk6GJQsqaUBKTNV-1" vertex="1">
                    <mxGeometry x="680" y="382.5" width="88" height="60" as="geometry"/>
                </mxCell>
                <mxCell id="bJSDkxrL3WFduaUttJcm-19" style="edgeStyle=orthogonalEdgeStyle;rounded=0;orthogonalLoop=1;jettySize=auto;html=1;exitX=1;exitY=0.5;exitDx=0;exitDy=0;entryX=0;entryY=0.5;entryDx=0;entryDy=0;" parent="WIyWlLk6GJQsqaUBKTNV-1" source="bJSDkxrL3WFduaUttJcm-8" target="bJSDkxrL3WFduaUttJcm-2" edge="1">
                    <mxGeometry relative="1" as="geometry"/>
                </mxCell>
                <mxCell id="bJSDkxrL3WFduaUttJcm-8" value="Model for Authors" style="rounded=1;whiteSpace=wrap;html=1;absoluteArcSize=1;arcSize=14;strokeWidth=2;" parent="WIyWlLk6GJQsqaUBKTNV-1" vertex="1">
                    <mxGeometry x="810" y="395" width="100" height="35" as="geometry"/>
                </mxCell>
                <mxCell id="bJSDkxrL3WFduaUttJcm-21" style="edgeStyle=orthogonalEdgeStyle;rounded=0;orthogonalLoop=1;jettySize=auto;html=1;exitX=1;exitY=0.5;exitDx=0;exitDy=0;entryX=0;entryY=0.5;entryDx=0;entryDy=0;" parent="WIyWlLk6GJQsqaUBKTNV-1" source="bJSDkxrL3WFduaUttJcm-9" target="bJSDkxrL3WFduaUttJcm-2" edge="1">
                    <mxGeometry relative="1" as="geometry">
                        <Array as="points">
                            <mxPoint x="920" y="473"/>
                            <mxPoint x="920" y="413"/>
                        </Array>
                    </mxGeometry>
                </mxCell>
                <mxCell id="bJSDkxrL3WFduaUttJcm-9" value="Model for Users" style="rounded=1;whiteSpace=wrap;html=1;absoluteArcSize=1;arcSize=14;strokeWidth=2;" parent="WIyWlLk6GJQsqaUBKTNV-1" vertex="1">
                    <mxGeometry x="810" y="455" width="100" height="35" as="geometry"/>
                </mxCell>
                <mxCell id="bJSDkxrL3WFduaUttJcm-58" style="edgeStyle=orthogonalEdgeStyle;rounded=0;orthogonalLoop=1;jettySize=auto;html=1;exitX=1;exitY=0.5;exitDx=0;exitDy=0;exitPerimeter=0;entryX=0.406;entryY=1.002;entryDx=0;entryDy=0;entryPerimeter=0;" parent="WIyWlLk6GJQsqaUBKTNV-1" source="bJSDkxrL3WFduaUttJcm-13" target="bJSDkxrL3WFduaUttJcm-56" edge="1">
                    <mxGeometry relative="1" as="geometry"/>
                </mxCell>
                <mxCell id="m30_3Kxj_st_KB5NB8ii-3" value="GET" style="edgeLabel;html=1;align=center;verticalAlign=middle;resizable=0;points=[];" parent="bJSDkxrL3WFduaUttJcm-58" vertex="1" connectable="0">
                    <mxGeometry x="-0.1536" y="-3" relative="1" as="geometry">
                        <mxPoint as="offset"/>
                    </mxGeometry>
                </mxCell>
                <mxCell id="bJSDkxrL3WFduaUttJcm-13" value="MongoDB" style="strokeWidth=2;html=1;shape=mxgraph.flowchart.database;whiteSpace=wrap;" parent="WIyWlLk6GJQsqaUBKTNV-1" vertex="1">
                    <mxGeometry x="1020" y="382.5" width="60" height="60" as="geometry"/>
                </mxCell>
                <mxCell id="bJSDkxrL3WFduaUttJcm-24" style="edgeStyle=orthogonalEdgeStyle;rounded=0;orthogonalLoop=1;jettySize=auto;html=1;exitX=0.5;exitY=1;exitDx=0;exitDy=0;exitPerimeter=0;strokeColor=#FFFF00;strokeWidth=2;" parent="WIyWlLk6GJQsqaUBKTNV-1" source="bJSDkxrL3WFduaUttJcm-14" target="bJSDkxrL3WFduaUttJcm-13" edge="1">
                    <mxGeometry relative="1" as="geometry"/>
                </mxCell>
                <mxCell id="bJSDkxrL3WFduaUttJcm-14" value="Get Stored Data" style="strokeWidth=2;html=1;shape=mxgraph.flowchart.stored_data;whiteSpace=wrap;" parent="WIyWlLk6GJQsqaUBKTNV-1" vertex="1">
                    <mxGeometry x="925" y="290" width="80" height="30" as="geometry"/>
                </mxCell>
                <mxCell id="bJSDkxrL3WFduaUttJcm-32" style="edgeStyle=orthogonalEdgeStyle;rounded=0;orthogonalLoop=1;jettySize=auto;html=1;entryX=0.5;entryY=0;entryDx=0;entryDy=0;entryPerimeter=0;" parent="WIyWlLk6GJQsqaUBKTNV-1" source="bJSDkxrL3WFduaUttJcm-27" target="bJSDkxrL3WFduaUttJcm-3" edge="1">
                    <mxGeometry relative="1" as="geometry">
                        <mxPoint x="75" y="190" as="targetPoint"/>
                    </mxGeometry>
                </mxCell>
                <mxCell id="35" style="edgeStyle=none;html=1;entryX=1;entryY=0.5;entryDx=0;entryDy=0;entryPerimeter=0;" edge="1" parent="WIyWlLk6GJQsqaUBKTNV-1" source="bJSDkxrL3WFduaUttJcm-27" target="22">
                    <mxGeometry relative="1" as="geometry"/>
                </mxCell>
                <mxCell id="bJSDkxrL3WFduaUttJcm-27" value="Actor" style="shape=umlActor;verticalLabelPosition=bottom;verticalAlign=top;html=1;outlineConnect=0;" parent="WIyWlLk6GJQsqaUBKTNV-1" vertex="1">
                    <mxGeometry x="60" y="30" width="30" height="60" as="geometry"/>
                </mxCell>
                <mxCell id="bJSDkxrL3WFduaUttJcm-76" style="edgeStyle=orthogonalEdgeStyle;rounded=0;orthogonalLoop=1;jettySize=auto;html=1;exitX=1;exitY=0.5;exitDx=0;exitDy=0;exitPerimeter=0;" parent="WIyWlLk6GJQsqaUBKTNV-1" source="bJSDkxrL3WFduaUttJcm-31" edge="1">
                    <mxGeometry relative="1" as="geometry">
                        <mxPoint x="230" y="1115.2592592592591" as="targetPoint"/>
                    </mxGeometry>
                </mxCell>
                <mxCell id="bJSDkxrL3WFduaUttJcm-31" value="&lt;span style=&quot;font-size: 10px;&quot;&gt;Display&lt;/span&gt;" style="strokeWidth=2;html=1;shape=mxgraph.flowchart.display;whiteSpace=wrap;" parent="WIyWlLk6GJQsqaUBKTNV-1" vertex="1">
                    <mxGeometry x="115" y="1090" width="80" height="50" as="geometry"/>
                </mxCell>
                <mxCell id="bJSDkxrL3WFduaUttJcm-61" style="edgeStyle=orthogonalEdgeStyle;rounded=0;orthogonalLoop=1;jettySize=auto;html=1;entryX=0.806;entryY=-0.045;entryDx=0;entryDy=0;entryPerimeter=0;" parent="WIyWlLk6GJQsqaUBKTNV-1" source="bJSDkxrL3WFduaUttJcm-33" target="bJSDkxrL3WFduaUttJcm-3" edge="1">
                    <mxGeometry relative="1" as="geometry"/>
                </mxCell>
                <mxCell id="bJSDkxrL3WFduaUttJcm-33" value="Logged In" style="rounded=1;whiteSpace=wrap;html=1;absoluteArcSize=1;arcSize=14;strokeWidth=2;" parent="WIyWlLk6GJQsqaUBKTNV-1" vertex="1">
                    <mxGeometry x="160" y="137.5" width="80" height="35" as="geometry"/>
                </mxCell>
                <mxCell id="bJSDkxrL3WFduaUttJcm-198" style="edgeStyle=orthogonalEdgeStyle;rounded=0;orthogonalLoop=1;jettySize=auto;html=1;entryX=0;entryY=0.5;entryDx=0;entryDy=0;" parent="WIyWlLk6GJQsqaUBKTNV-1" source="bJSDkxrL3WFduaUttJcm-34" target="bJSDkxrL3WFduaUttJcm-188" edge="1">
                    <mxGeometry relative="1" as="geometry"/>
                </mxCell>
                <mxCell id="m30_3Kxj_st_KB5NB8ii-2" style="edgeStyle=orthogonalEdgeStyle;rounded=0;orthogonalLoop=1;jettySize=auto;html=1;exitX=0.5;exitY=1;exitDx=0;exitDy=0;exitPerimeter=0;entryX=0.5;entryY=0;entryDx=0;entryDy=0;" parent="WIyWlLk6GJQsqaUBKTNV-1" source="bJSDkxrL3WFduaUttJcm-34" target="bJSDkxrL3WFduaUttJcm-187" edge="1">
                    <mxGeometry relative="1" as="geometry"/>
                </mxCell>
                <mxCell id="bJSDkxrL3WFduaUttJcm-34" value="Edit or &#10;Log out" style="strokeWidth=2;shape=mxgraph.flowchart.decision;whiteSpace=wrap;fontSize=10;" parent="WIyWlLk6GJQsqaUBKTNV-1" vertex="1">
                    <mxGeometry x="430" y="460" width="70" height="70" as="geometry"/>
                </mxCell>
                <mxCell id="bJSDkxrL3WFduaUttJcm-67" style="edgeStyle=orthogonalEdgeStyle;rounded=0;orthogonalLoop=1;jettySize=auto;html=1;exitX=0.5;exitY=1;exitDx=0;exitDy=0;exitPerimeter=0;entryX=0.427;entryY=0.309;entryDx=0;entryDy=0;entryPerimeter=0;" parent="WIyWlLk6GJQsqaUBKTNV-1" source="bJSDkxrL3WFduaUttJcm-35" target="bJSDkxrL3WFduaUttJcm-63" edge="1">
                    <mxGeometry relative="1" as="geometry">
                        <mxPoint x="74.85714285714289" y="670" as="targetPoint"/>
                    </mxGeometry>
                </mxCell>
                <mxCell id="bJSDkxrL3WFduaUttJcm-70" value="Add Author" style="edgeLabel;html=1;align=center;verticalAlign=middle;resizable=0;points=[];" parent="bJSDkxrL3WFduaUttJcm-67" vertex="1" connectable="0">
                    <mxGeometry x="0.2709" y="1" relative="1" as="geometry">
                        <mxPoint x="-1" y="132" as="offset"/>
                    </mxGeometry>
                </mxCell>
                <mxCell id="bJSDkxrL3WFduaUttJcm-68" value="Authors" style="edgeStyle=orthogonalEdgeStyle;rounded=0;orthogonalLoop=1;jettySize=auto;html=1;exitX=0.5;exitY=1;exitDx=0;exitDy=0;exitPerimeter=0;" parent="WIyWlLk6GJQsqaUBKTNV-1" source="bJSDkxrL3WFduaUttJcm-35" target="bJSDkxrL3WFduaUttJcm-31" edge="1">
                    <mxGeometry x="0.5685" relative="1" as="geometry">
                        <Array as="points">
                            <mxPoint x="75" y="980"/>
                            <mxPoint x="155" y="980"/>
                        </Array>
                        <mxPoint as="offset"/>
                    </mxGeometry>
                </mxCell>
                <mxCell id="bJSDkxrL3WFduaUttJcm-35" value="Author or &#10;Add Authors" style="strokeWidth=2;shape=mxgraph.flowchart.decision;whiteSpace=wrap;fontSize=10;" parent="WIyWlLk6GJQsqaUBKTNV-1" vertex="1">
                    <mxGeometry x="27.5" y="364.5" width="95" height="87" as="geometry"/>
                </mxCell>
                <mxCell id="bJSDkxrL3WFduaUttJcm-94" style="edgeStyle=orthogonalEdgeStyle;rounded=0;orthogonalLoop=1;jettySize=auto;html=1;exitX=0.5;exitY=1;exitDx=0;exitDy=0;exitPerimeter=0;entryX=0.493;entryY=0.241;entryDx=0;entryDy=0;entryPerimeter=0;" parent="WIyWlLk6GJQsqaUBKTNV-1" source="bJSDkxrL3WFduaUttJcm-36" target="bJSDkxrL3WFduaUttJcm-87" edge="1">
                    <mxGeometry relative="1" as="geometry"/>
                </mxCell>
                <mxCell id="bJSDkxrL3WFduaUttJcm-96" value="Add Books" style="edgeLabel;html=1;align=center;verticalAlign=middle;resizable=0;points=[];" parent="bJSDkxrL3WFduaUttJcm-94" vertex="1" connectable="0">
                    <mxGeometry x="0.2848" y="-3" relative="1" as="geometry">
                        <mxPoint y="43" as="offset"/>
                    </mxGeometry>
                </mxCell>
                <mxCell id="bJSDkxrL3WFduaUttJcm-95" value="Books" style="edgeStyle=orthogonalEdgeStyle;rounded=0;orthogonalLoop=1;jettySize=auto;html=1;exitX=0.5;exitY=1;exitDx=0;exitDy=0;exitPerimeter=0;entryX=0.5;entryY=0;entryDx=0;entryDy=0;entryPerimeter=0;" parent="WIyWlLk6GJQsqaUBKTNV-1" source="bJSDkxrL3WFduaUttJcm-36" target="bJSDkxrL3WFduaUttJcm-86" edge="1">
                    <mxGeometry x="0.5254" relative="1" as="geometry">
                        <Array as="points">
                            <mxPoint x="225" y="750"/>
                            <mxPoint x="320" y="750"/>
                        </Array>
                        <mxPoint as="offset"/>
                    </mxGeometry>
                </mxCell>
                <mxCell id="bJSDkxrL3WFduaUttJcm-36" value="Books or &#10;Add Books" style="strokeWidth=2;shape=mxgraph.flowchart.decision;whiteSpace=wrap;fontSize=10;" parent="WIyWlLk6GJQsqaUBKTNV-1" vertex="1">
                    <mxGeometry x="180" y="358" width="90" height="93.5" as="geometry"/>
                </mxCell>
                <mxCell id="bJSDkxrL3WFduaUttJcm-47" value="Has an Acc" style="edgeStyle=orthogonalEdgeStyle;rounded=0;orthogonalLoop=1;jettySize=auto;html=1;exitX=1;exitY=0.5;exitDx=0;exitDy=0;exitPerimeter=0;entryX=0;entryY=0.5;entryDx=0;entryDy=0;" parent="WIyWlLk6GJQsqaUBKTNV-1" source="bJSDkxrL3WFduaUttJcm-37" target="bJSDkxrL3WFduaUttJcm-45" edge="1">
                    <mxGeometry relative="1" as="geometry"/>
                </mxCell>
                <mxCell id="bJSDkxrL3WFduaUttJcm-48" value="No Acc?" style="edgeStyle=orthogonalEdgeStyle;rounded=0;orthogonalLoop=1;jettySize=auto;html=1;exitX=1;exitY=0.5;exitDx=0;exitDy=0;exitPerimeter=0;entryX=0;entryY=0.5;entryDx=0;entryDy=0;" parent="WIyWlLk6GJQsqaUBKTNV-1" source="bJSDkxrL3WFduaUttJcm-37" target="bJSDkxrL3WFduaUttJcm-46" edge="1">
                    <mxGeometry relative="1" as="geometry"/>
                </mxCell>
                <mxCell id="bJSDkxrL3WFduaUttJcm-37" value="Login or&lt;br&gt;Register" style="strokeWidth=2;html=1;shape=mxgraph.flowchart.decision;whiteSpace=wrap;" parent="WIyWlLk6GJQsqaUBKTNV-1" vertex="1">
                    <mxGeometry x="185" y="205" width="80" height="80" as="geometry"/>
                </mxCell>
                <mxCell id="bJSDkxrL3WFduaUttJcm-53" style="edgeStyle=orthogonalEdgeStyle;rounded=0;orthogonalLoop=1;jettySize=auto;html=1;exitX=1;exitY=0.5;exitDx=0;exitDy=0;entryX=0;entryY=0.5;entryDx=0;entryDy=0;" parent="WIyWlLk6GJQsqaUBKTNV-1" source="bJSDkxrL3WFduaUttJcm-45" target="bJSDkxrL3WFduaUttJcm-52" edge="1">
                    <mxGeometry relative="1" as="geometry">
                        <mxPoint x="410" y="197.5454545454545" as="targetPoint"/>
                    </mxGeometry>
                </mxCell>
                <mxCell id="bJSDkxrL3WFduaUttJcm-45" value="Login" style="rounded=1;whiteSpace=wrap;html=1;absoluteArcSize=1;arcSize=14;strokeWidth=2;" parent="WIyWlLk6GJQsqaUBKTNV-1" vertex="1">
                    <mxGeometry x="320" y="180" width="55" height="35" as="geometry"/>
                </mxCell>
                <mxCell id="bJSDkxrL3WFduaUttJcm-50" style="edgeStyle=orthogonalEdgeStyle;rounded=0;orthogonalLoop=1;jettySize=auto;html=1;exitX=1;exitY=0.5;exitDx=0;exitDy=0;entryX=0;entryY=0.75;entryDx=0;entryDy=0;" parent="WIyWlLk6GJQsqaUBKTNV-1" source="bJSDkxrL3WFduaUttJcm-46" target="bJSDkxrL3WFduaUttJcm-4" edge="1">
                    <mxGeometry relative="1" as="geometry"/>
                </mxCell>
                <mxCell id="bJSDkxrL3WFduaUttJcm-46" value="Register" style="rounded=1;whiteSpace=wrap;html=1;absoluteArcSize=1;arcSize=14;strokeWidth=2;" parent="WIyWlLk6GJQsqaUBKTNV-1" vertex="1">
                    <mxGeometry x="320" y="262.5" width="55" height="35" as="geometry"/>
                </mxCell>
                <mxCell id="bJSDkxrL3WFduaUttJcm-55" style="edgeStyle=orthogonalEdgeStyle;rounded=0;orthogonalLoop=1;jettySize=auto;html=1;entryX=0.5;entryY=0;entryDx=0;entryDy=0;entryPerimeter=0;strokeColor=#00CC66;strokeWidth=2;" parent="WIyWlLk6GJQsqaUBKTNV-1" source="bJSDkxrL3WFduaUttJcm-49" target="bJSDkxrL3WFduaUttJcm-7" edge="1">
                    <mxGeometry relative="1" as="geometry"/>
                </mxCell>
                <mxCell id="bJSDkxrL3WFduaUttJcm-185" value="POST" style="edgeLabel;html=1;align=center;verticalAlign=middle;resizable=0;points=[];" parent="bJSDkxrL3WFduaUttJcm-55" vertex="1" connectable="0">
                    <mxGeometry x="0.6424" y="4" relative="1" as="geometry">
                        <mxPoint x="-4" as="offset"/>
                    </mxGeometry>
                </mxCell>
                <mxCell id="bJSDkxrL3WFduaUttJcm-49" value="Data" style="shape=parallelogram;html=1;strokeWidth=2;perimeter=parallelogramPerimeter;whiteSpace=wrap;rounded=1;arcSize=12;size=0.23;" parent="WIyWlLk6GJQsqaUBKTNV-1" vertex="1">
                    <mxGeometry x="570" y="260" width="70" height="30" as="geometry"/>
                </mxCell>
                <mxCell id="bJSDkxrL3WFduaUttJcm-54" style="edgeStyle=orthogonalEdgeStyle;rounded=0;orthogonalLoop=1;jettySize=auto;html=1;exitX=1;exitY=0.5;exitDx=0;exitDy=0;entryX=0.5;entryY=0;entryDx=0;entryDy=0;entryPerimeter=0;" parent="WIyWlLk6GJQsqaUBKTNV-1" source="bJSDkxrL3WFduaUttJcm-52" target="bJSDkxrL3WFduaUttJcm-14" edge="1">
                    <mxGeometry relative="1" as="geometry">
                        <mxPoint x="960" y="198" as="targetPoint"/>
                    </mxGeometry>
                </mxCell>
                <mxCell id="bJSDkxrL3WFduaUttJcm-52" value="Data" style="shape=parallelogram;html=1;strokeWidth=2;perimeter=parallelogramPerimeter;whiteSpace=wrap;rounded=1;arcSize=12;size=0.23;" parent="WIyWlLk6GJQsqaUBKTNV-1" vertex="1">
                    <mxGeometry x="450" y="182.5" width="70" height="30" as="geometry"/>
                </mxCell>
                <mxCell id="bJSDkxrL3WFduaUttJcm-60" style="edgeStyle=orthogonalEdgeStyle;rounded=0;orthogonalLoop=1;jettySize=auto;html=1;exitX=0;exitY=0.5;exitDx=0;exitDy=0;entryX=1;entryY=0.5;entryDx=0;entryDy=0;" parent="WIyWlLk6GJQsqaUBKTNV-1" source="bJSDkxrL3WFduaUttJcm-56" target="bJSDkxrL3WFduaUttJcm-33" edge="1">
                    <mxGeometry relative="1" as="geometry"/>
                </mxCell>
                <mxCell id="bJSDkxrL3WFduaUttJcm-56" value="Data" style="shape=parallelogram;html=1;strokeWidth=2;perimeter=parallelogramPerimeter;whiteSpace=wrap;rounded=1;arcSize=12;size=0.23;" parent="WIyWlLk6GJQsqaUBKTNV-1" vertex="1">
                    <mxGeometry x="1030" y="140" width="70" height="30" as="geometry"/>
                </mxCell>
                <mxCell id="bJSDkxrL3WFduaUttJcm-62" value="&lt;span style=&quot;font-size: 10px;&quot;&gt;Display&lt;/span&gt;" style="strokeWidth=2;html=1;shape=mxgraph.flowchart.display;whiteSpace=wrap;" parent="WIyWlLk6GJQsqaUBKTNV-1" vertex="1">
                    <mxGeometry x="472.5" y="1020" width="65" height="42.5" as="geometry"/>
                </mxCell>
                <mxCell id="bJSDkxrL3WFduaUttJcm-71" style="edgeStyle=orthogonalEdgeStyle;rounded=0;orthogonalLoop=1;jettySize=auto;html=1;entryX=0;entryY=0.5;entryDx=0;entryDy=0;entryPerimeter=0;" parent="WIyWlLk6GJQsqaUBKTNV-1" source="bJSDkxrL3WFduaUttJcm-63" target="bJSDkxrL3WFduaUttJcm-64" edge="1">
                    <mxGeometry relative="1" as="geometry"/>
                </mxCell>
                <mxCell id="bJSDkxrL3WFduaUttJcm-63" value="&lt;font style=&quot;font-size: 12px;&quot;&gt;Form&lt;/font&gt;" style="html=1;strokeWidth=2;shape=manualInput;whiteSpace=wrap;rounded=1;size=26;arcSize=11;spacingTop=12;" parent="WIyWlLk6GJQsqaUBKTNV-1" vertex="1">
                    <mxGeometry x="45" y="1235" width="70" height="42.5" as="geometry"/>
                </mxCell>
                <mxCell id="bJSDkxrL3WFduaUttJcm-72" style="edgeStyle=orthogonalEdgeStyle;rounded=0;orthogonalLoop=1;jettySize=auto;html=1;exitX=1;exitY=0.5;exitDx=0;exitDy=0;exitPerimeter=0;entryX=0;entryY=0.5;entryDx=0;entryDy=0;" parent="WIyWlLk6GJQsqaUBKTNV-1" source="bJSDkxrL3WFduaUttJcm-64" target="bJSDkxrL3WFduaUttJcm-66" edge="1">
                    <mxGeometry relative="1" as="geometry">
                        <Array as="points">
                            <mxPoint x="220" y="1256"/>
                            <mxPoint x="220" y="1228"/>
                        </Array>
                    </mxGeometry>
                </mxCell>
                <mxCell id="bJSDkxrL3WFduaUttJcm-73" style="edgeStyle=orthogonalEdgeStyle;rounded=0;orthogonalLoop=1;jettySize=auto;html=1;exitX=1;exitY=0.5;exitDx=0;exitDy=0;exitPerimeter=0;entryX=0;entryY=0.5;entryDx=0;entryDy=0;" parent="WIyWlLk6GJQsqaUBKTNV-1" source="bJSDkxrL3WFduaUttJcm-64" target="bJSDkxrL3WFduaUttJcm-65" edge="1">
                    <mxGeometry relative="1" as="geometry">
                        <Array as="points">
                            <mxPoint x="220" y="1256"/>
                            <mxPoint x="220" y="1278"/>
                        </Array>
                    </mxGeometry>
                </mxCell>
                <mxCell id="bJSDkxrL3WFduaUttJcm-64" value="Cancel or &#10;Create" style="strokeWidth=2;shape=mxgraph.flowchart.decision;whiteSpace=wrap;fontSize=10;" parent="WIyWlLk6GJQsqaUBKTNV-1" vertex="1">
                    <mxGeometry x="140" y="1226.25" width="70" height="60" as="geometry"/>
                </mxCell>
                <mxCell id="bJSDkxrL3WFduaUttJcm-140" style="edgeStyle=orthogonalEdgeStyle;rounded=0;orthogonalLoop=1;jettySize=auto;html=1;" parent="WIyWlLk6GJQsqaUBKTNV-1" source="bJSDkxrL3WFduaUttJcm-65" target="bJSDkxrL3WFduaUttJcm-139" edge="1">
                    <mxGeometry relative="1" as="geometry"/>
                </mxCell>
                <mxCell id="bJSDkxrL3WFduaUttJcm-65" value="Create" style="rounded=1;whiteSpace=wrap;html=1;absoluteArcSize=1;arcSize=14;strokeWidth=2;" parent="WIyWlLk6GJQsqaUBKTNV-1" vertex="1">
                    <mxGeometry x="240" y="1260" width="55" height="35" as="geometry"/>
                </mxCell>
                <mxCell id="bJSDkxrL3WFduaUttJcm-74" style="edgeStyle=orthogonalEdgeStyle;rounded=0;orthogonalLoop=1;jettySize=auto;html=1;exitX=0.5;exitY=0;exitDx=0;exitDy=0;entryX=0.5;entryY=1;entryDx=0;entryDy=0;entryPerimeter=0;" parent="WIyWlLk6GJQsqaUBKTNV-1" source="bJSDkxrL3WFduaUttJcm-66" target="bJSDkxrL3WFduaUttJcm-31" edge="1">
                    <mxGeometry relative="1" as="geometry"/>
                </mxCell>
                <mxCell id="bJSDkxrL3WFduaUttJcm-66" value="Cancel" style="rounded=1;whiteSpace=wrap;html=1;absoluteArcSize=1;arcSize=14;strokeWidth=2;" parent="WIyWlLk6GJQsqaUBKTNV-1" vertex="1">
                    <mxGeometry x="240" y="1210" width="55" height="35" as="geometry"/>
                </mxCell>
                <mxCell id="bJSDkxrL3WFduaUttJcm-80" style="edgeStyle=orthogonalEdgeStyle;rounded=0;orthogonalLoop=1;jettySize=auto;html=1;exitX=1;exitY=0.5;exitDx=0;exitDy=0;exitPerimeter=0;entryX=0;entryY=0.5;entryDx=0;entryDy=0;" parent="WIyWlLk6GJQsqaUBKTNV-1" source="bJSDkxrL3WFduaUttJcm-75" target="bJSDkxrL3WFduaUttJcm-78" edge="1">
                    <mxGeometry relative="1" as="geometry"/>
                </mxCell>
                <mxCell id="bJSDkxrL3WFduaUttJcm-82" style="edgeStyle=orthogonalEdgeStyle;rounded=0;orthogonalLoop=1;jettySize=auto;html=1;exitX=1;exitY=0.5;exitDx=0;exitDy=0;exitPerimeter=0;entryX=0;entryY=0.5;entryDx=0;entryDy=0;" parent="WIyWlLk6GJQsqaUBKTNV-1" source="bJSDkxrL3WFduaUttJcm-75" target="bJSDkxrL3WFduaUttJcm-77" edge="1">
                    <mxGeometry relative="1" as="geometry"/>
                </mxCell>
                <mxCell id="bJSDkxrL3WFduaUttJcm-85" style="edgeStyle=orthogonalEdgeStyle;rounded=0;orthogonalLoop=1;jettySize=auto;html=1;exitX=1;exitY=0.5;exitDx=0;exitDy=0;exitPerimeter=0;" parent="WIyWlLk6GJQsqaUBKTNV-1" source="bJSDkxrL3WFduaUttJcm-75" target="bJSDkxrL3WFduaUttJcm-79" edge="1">
                    <mxGeometry relative="1" as="geometry"/>
                </mxCell>
                <mxCell id="bJSDkxrL3WFduaUttJcm-75" value="View or Edit &#10;or Delete" style="strokeWidth=2;shape=mxgraph.flowchart.decision;whiteSpace=wrap;fontSize=9;" parent="WIyWlLk6GJQsqaUBKTNV-1" vertex="1">
                    <mxGeometry x="232.5" y="1085" width="70" height="60" as="geometry"/>
                </mxCell>
                <mxCell id="bJSDkxrL3WFduaUttJcm-110" value="" style="edgeStyle=orthogonalEdgeStyle;rounded=0;orthogonalLoop=1;jettySize=auto;html=1;exitX=1;exitY=0.5;exitDx=0;exitDy=0;entryX=0;entryY=0.75;entryDx=0;entryDy=0;" parent="WIyWlLk6GJQsqaUBKTNV-1" source="bJSDkxrL3WFduaUttJcm-77" target="bJSDkxrL3WFduaUttJcm-106" edge="1">
                    <mxGeometry relative="1" as="geometry"/>
                </mxCell>
                <mxCell id="bJSDkxrL3WFduaUttJcm-77" value="Edit" style="rounded=1;whiteSpace=wrap;html=1;absoluteArcSize=1;arcSize=14;strokeWidth=2;" parent="WIyWlLk6GJQsqaUBKTNV-1" vertex="1">
                    <mxGeometry x="340" y="1097.5" width="55" height="35" as="geometry"/>
                </mxCell>
                <mxCell id="bJSDkxrL3WFduaUttJcm-114" style="edgeStyle=orthogonalEdgeStyle;rounded=0;orthogonalLoop=1;jettySize=auto;html=1;exitX=1;exitY=0.5;exitDx=0;exitDy=0;entryX=0;entryY=0.5;entryDx=0;entryDy=0;entryPerimeter=0;" parent="WIyWlLk6GJQsqaUBKTNV-1" source="bJSDkxrL3WFduaUttJcm-78" target="bJSDkxrL3WFduaUttJcm-62" edge="1">
                    <mxGeometry relative="1" as="geometry"/>
                </mxCell>
                <mxCell id="bJSDkxrL3WFduaUttJcm-119" value="GET" style="edgeLabel;html=1;align=center;verticalAlign=middle;resizable=0;points=[];" parent="bJSDkxrL3WFduaUttJcm-114" vertex="1" connectable="0">
                    <mxGeometry x="-0.3681" relative="1" as="geometry">
                        <mxPoint x="-14" as="offset"/>
                    </mxGeometry>
                </mxCell>
                <mxCell id="bJSDkxrL3WFduaUttJcm-78" value="View" style="rounded=1;whiteSpace=wrap;html=1;absoluteArcSize=1;arcSize=14;strokeWidth=2;" parent="WIyWlLk6GJQsqaUBKTNV-1" vertex="1">
                    <mxGeometry x="340" y="1050" width="55" height="35" as="geometry"/>
                </mxCell>
                <mxCell id="bJSDkxrL3WFduaUttJcm-116" style="edgeStyle=orthogonalEdgeStyle;rounded=0;orthogonalLoop=1;jettySize=auto;html=1;entryX=0;entryY=0.5;entryDx=0;entryDy=0;" parent="WIyWlLk6GJQsqaUBKTNV-1" source="bJSDkxrL3WFduaUttJcm-79" target="bJSDkxrL3WFduaUttJcm-112" edge="1">
                    <mxGeometry relative="1" as="geometry"/>
                </mxCell>
                <mxCell id="bJSDkxrL3WFduaUttJcm-79" value="Delete" style="rounded=1;whiteSpace=wrap;html=1;absoluteArcSize=1;arcSize=14;strokeWidth=2;" parent="WIyWlLk6GJQsqaUBKTNV-1" vertex="1">
                    <mxGeometry x="340" y="1145" width="55" height="35" as="geometry"/>
                </mxCell>
                <mxCell id="bJSDkxrL3WFduaUttJcm-162" style="edgeStyle=orthogonalEdgeStyle;rounded=0;orthogonalLoop=1;jettySize=auto;html=1;entryX=0;entryY=0.5;entryDx=0;entryDy=0;entryPerimeter=0;" parent="WIyWlLk6GJQsqaUBKTNV-1" source="bJSDkxrL3WFduaUttJcm-86" target="bJSDkxrL3WFduaUttJcm-161" edge="1">
                    <mxGeometry relative="1" as="geometry"/>
                </mxCell>
                <mxCell id="bJSDkxrL3WFduaUttJcm-86" value="&lt;span style=&quot;font-size: 10px;&quot;&gt;Display&lt;/span&gt;" style="strokeWidth=2;html=1;shape=mxgraph.flowchart.display;whiteSpace=wrap;" parent="WIyWlLk6GJQsqaUBKTNV-1" vertex="1">
                    <mxGeometry x="280" y="820" width="80" height="50" as="geometry"/>
                </mxCell>
                <mxCell id="bJSDkxrL3WFduaUttJcm-97" style="edgeStyle=orthogonalEdgeStyle;rounded=0;orthogonalLoop=1;jettySize=auto;html=1;entryX=-0.08;entryY=0.5;entryDx=0;entryDy=0;entryPerimeter=0;" parent="WIyWlLk6GJQsqaUBKTNV-1" source="bJSDkxrL3WFduaUttJcm-87" target="bJSDkxrL3WFduaUttJcm-88" edge="1">
                    <mxGeometry relative="1" as="geometry"/>
                </mxCell>
                <mxCell id="bJSDkxrL3WFduaUttJcm-87" value="&lt;font style=&quot;font-size: 12px;&quot;&gt;Form&lt;/font&gt;" style="html=1;strokeWidth=2;shape=manualInput;whiteSpace=wrap;rounded=1;size=26;arcSize=11;spacingTop=12;" parent="WIyWlLk6GJQsqaUBKTNV-1" vertex="1">
                    <mxGeometry x="190" y="916.25" width="70" height="42.5" as="geometry"/>
                </mxCell>
                <mxCell id="bJSDkxrL3WFduaUttJcm-98" style="edgeStyle=orthogonalEdgeStyle;rounded=0;orthogonalLoop=1;jettySize=auto;html=1;exitX=1;exitY=0.5;exitDx=0;exitDy=0;exitPerimeter=0;entryX=0;entryY=0.5;entryDx=0;entryDy=0;" parent="WIyWlLk6GJQsqaUBKTNV-1" source="bJSDkxrL3WFduaUttJcm-88" target="bJSDkxrL3WFduaUttJcm-90" edge="1">
                    <mxGeometry relative="1" as="geometry"/>
                </mxCell>
                <mxCell id="bJSDkxrL3WFduaUttJcm-99" style="edgeStyle=orthogonalEdgeStyle;rounded=0;orthogonalLoop=1;jettySize=auto;html=1;exitX=1;exitY=0.5;exitDx=0;exitDy=0;exitPerimeter=0;entryX=0;entryY=0.5;entryDx=0;entryDy=0;" parent="WIyWlLk6GJQsqaUBKTNV-1" source="bJSDkxrL3WFduaUttJcm-88" target="bJSDkxrL3WFduaUttJcm-89" edge="1">
                    <mxGeometry relative="1" as="geometry"/>
                </mxCell>
                <mxCell id="bJSDkxrL3WFduaUttJcm-88" value="Cancel or &#10;Create" style="strokeWidth=2;shape=mxgraph.flowchart.decision;whiteSpace=wrap;fontSize=10;" parent="WIyWlLk6GJQsqaUBKTNV-1" vertex="1">
                    <mxGeometry x="305" y="907.5" width="70" height="60" as="geometry"/>
                </mxCell>
                <mxCell id="bJSDkxrL3WFduaUttJcm-137" style="edgeStyle=orthogonalEdgeStyle;rounded=0;orthogonalLoop=1;jettySize=auto;html=1;" parent="WIyWlLk6GJQsqaUBKTNV-1" source="bJSDkxrL3WFduaUttJcm-89" target="bJSDkxrL3WFduaUttJcm-127" edge="1">
                    <mxGeometry relative="1" as="geometry"/>
                </mxCell>
                <mxCell id="bJSDkxrL3WFduaUttJcm-89" value="Create" style="rounded=1;whiteSpace=wrap;html=1;absoluteArcSize=1;arcSize=14;strokeWidth=2;" parent="WIyWlLk6GJQsqaUBKTNV-1" vertex="1">
                    <mxGeometry x="410" y="945" width="55" height="35" as="geometry"/>
                </mxCell>
                <mxCell id="bJSDkxrL3WFduaUttJcm-104" style="edgeStyle=orthogonalEdgeStyle;rounded=0;orthogonalLoop=1;jettySize=auto;html=1;exitX=0;exitY=0.25;exitDx=0;exitDy=0;entryX=0.5;entryY=1;entryDx=0;entryDy=0;entryPerimeter=0;" parent="WIyWlLk6GJQsqaUBKTNV-1" source="bJSDkxrL3WFduaUttJcm-90" target="bJSDkxrL3WFduaUttJcm-86" edge="1">
                    <mxGeometry relative="1" as="geometry">
                        <Array as="points">
                            <mxPoint x="410" y="900"/>
                            <mxPoint x="320" y="900"/>
                        </Array>
                    </mxGeometry>
                </mxCell>
                <mxCell id="bJSDkxrL3WFduaUttJcm-90" value="Cancel" style="rounded=1;whiteSpace=wrap;html=1;absoluteArcSize=1;arcSize=14;strokeWidth=2;" parent="WIyWlLk6GJQsqaUBKTNV-1" vertex="1">
                    <mxGeometry x="410" y="895" width="55" height="35" as="geometry"/>
                </mxCell>
                <mxCell id="bJSDkxrL3WFduaUttJcm-172" style="edgeStyle=orthogonalEdgeStyle;rounded=0;orthogonalLoop=1;jettySize=auto;html=1;entryX=0;entryY=0.5;entryDx=0;entryDy=0;" parent="WIyWlLk6GJQsqaUBKTNV-1" source="bJSDkxrL3WFduaUttJcm-106" target="bJSDkxrL3WFduaUttJcm-171" edge="1">
                    <mxGeometry relative="1" as="geometry"/>
                </mxCell>
                <mxCell id="bJSDkxrL3WFduaUttJcm-106" value="&lt;font style=&quot;font-size: 12px;&quot;&gt;Form&lt;/font&gt;" style="html=1;strokeWidth=2;shape=manualInput;whiteSpace=wrap;rounded=1;size=26;arcSize=11;spacingTop=12;" parent="WIyWlLk6GJQsqaUBKTNV-1" vertex="1">
                    <mxGeometry x="470" y="1083" width="70" height="42.5" as="geometry"/>
                </mxCell>
                <mxCell id="bJSDkxrL3WFduaUttJcm-117" style="edgeStyle=orthogonalEdgeStyle;rounded=0;orthogonalLoop=1;jettySize=auto;html=1;entryX=0.5;entryY=1;entryDx=0;entryDy=0;entryPerimeter=0;strokeColor=#ff1414;" parent="WIyWlLk6GJQsqaUBKTNV-1" source="bJSDkxrL3WFduaUttJcm-112" target="bJSDkxrL3WFduaUttJcm-113" edge="1">
                    <mxGeometry relative="1" as="geometry"/>
                </mxCell>
                <mxCell id="bJSDkxrL3WFduaUttJcm-112" value="Data" style="shape=parallelogram;html=1;strokeWidth=2;perimeter=parallelogramPerimeter;whiteSpace=wrap;rounded=1;arcSize=12;size=0.23;" parent="WIyWlLk6GJQsqaUBKTNV-1" vertex="1">
                    <mxGeometry x="470" y="1147.5" width="70" height="30" as="geometry"/>
                </mxCell>
                <mxCell id="bJSDkxrL3WFduaUttJcm-142" style="edgeStyle=orthogonalEdgeStyle;rounded=0;orthogonalLoop=1;jettySize=auto;html=1;strokeColor=#0000FF;strokeWidth=2;entryX=0.749;entryY=-0.02;entryDx=0;entryDy=0;entryPerimeter=0;" parent="WIyWlLk6GJQsqaUBKTNV-1" source="bJSDkxrL3WFduaUttJcm-113" target="bJSDkxrL3WFduaUttJcm-86" edge="1">
                    <mxGeometry relative="1" as="geometry">
                        <mxPoint x="360" y="810" as="targetPoint"/>
                        <Array as="points">
                            <mxPoint x="940" y="849"/>
                            <mxPoint x="940" y="740"/>
                            <mxPoint x="340" y="740"/>
                        </Array>
                    </mxGeometry>
                </mxCell>
                <mxCell id="bJSDkxrL3WFduaUttJcm-143" style="edgeStyle=orthogonalEdgeStyle;rounded=0;orthogonalLoop=1;jettySize=auto;html=1;entryX=0.5;entryY=0;entryDx=0;entryDy=0;entryPerimeter=0;strokeColor=#0000FF;strokeWidth=2;" parent="WIyWlLk6GJQsqaUBKTNV-1" source="bJSDkxrL3WFduaUttJcm-113" target="bJSDkxrL3WFduaUttJcm-62" edge="1">
                    <mxGeometry relative="1" as="geometry">
                        <Array as="points">
                            <mxPoint x="940" y="849"/>
                            <mxPoint x="940" y="990"/>
                            <mxPoint x="505" y="990"/>
                        </Array>
                    </mxGeometry>
                </mxCell>
                <mxCell id="bJSDkxrL3WFduaUttJcm-144" style="edgeStyle=orthogonalEdgeStyle;rounded=0;orthogonalLoop=1;jettySize=auto;html=1;entryX=0.834;entryY=-0.063;entryDx=0;entryDy=0;entryPerimeter=0;strokeColor=#0000FF;strokeWidth=2;" parent="WIyWlLk6GJQsqaUBKTNV-1" source="bJSDkxrL3WFduaUttJcm-113" target="bJSDkxrL3WFduaUttJcm-31" edge="1">
                    <mxGeometry relative="1" as="geometry">
                        <Array as="points">
                            <mxPoint x="940" y="849"/>
                            <mxPoint x="940" y="990"/>
                            <mxPoint x="182" y="990"/>
                        </Array>
                    </mxGeometry>
                </mxCell>
                <mxCell id="bJSDkxrL3WFduaUttJcm-138" style="edgeStyle=orthogonalEdgeStyle;rounded=0;orthogonalLoop=1;jettySize=auto;html=1;entryX=0.5;entryY=0.88;entryDx=0;entryDy=0;entryPerimeter=0;strokeColor=#00CC66;strokeWidth=2;" parent="WIyWlLk6GJQsqaUBKTNV-1" source="bJSDkxrL3WFduaUttJcm-127" target="bJSDkxrL3WFduaUttJcm-7" edge="1">
                    <mxGeometry relative="1" as="geometry">
                        <Array as="points">
                            <mxPoint x="790" y="963"/>
                            <mxPoint x="790" y="490"/>
                            <mxPoint x="724" y="490"/>
                        </Array>
                    </mxGeometry>
                </mxCell>
                <mxCell id="bJSDkxrL3WFduaUttJcm-127" value="Data" style="shape=parallelogram;html=1;strokeWidth=2;perimeter=parallelogramPerimeter;whiteSpace=wrap;rounded=1;arcSize=12;size=0.23;" parent="WIyWlLk6GJQsqaUBKTNV-1" vertex="1">
                    <mxGeometry x="500" y="948.75" width="70" height="27.5" as="geometry"/>
                </mxCell>
                <mxCell id="bJSDkxrL3WFduaUttJcm-141" style="edgeStyle=orthogonalEdgeStyle;rounded=0;orthogonalLoop=1;jettySize=auto;html=1;entryX=0.5;entryY=0.88;entryDx=0;entryDy=0;entryPerimeter=0;strokeColor=#5efd5e;strokeWidth=2;" parent="WIyWlLk6GJQsqaUBKTNV-1" source="bJSDkxrL3WFduaUttJcm-139" target="bJSDkxrL3WFduaUttJcm-7" edge="1">
                    <mxGeometry relative="1" as="geometry">
                        <Array as="points">
                            <mxPoint x="790" y="1278"/>
                            <mxPoint x="790" y="490"/>
                            <mxPoint x="724" y="490"/>
                        </Array>
                    </mxGeometry>
                </mxCell>
                <mxCell id="bJSDkxrL3WFduaUttJcm-139" value="Data" style="shape=parallelogram;html=1;strokeWidth=2;perimeter=parallelogramPerimeter;whiteSpace=wrap;rounded=1;arcSize=12;size=0.23;" parent="WIyWlLk6GJQsqaUBKTNV-1" vertex="1">
                    <mxGeometry x="320" y="1263.75" width="70" height="27.5" as="geometry"/>
                </mxCell>
                <mxCell id="bJSDkxrL3WFduaUttJcm-150" value="&lt;span style=&quot;font-size: 10px;&quot;&gt;Display&lt;/span&gt;" style="strokeWidth=2;html=1;shape=mxgraph.flowchart.display;whiteSpace=wrap;" parent="WIyWlLk6GJQsqaUBKTNV-1" vertex="1">
                    <mxGeometry x="637.5" y="765" width="65" height="42.5" as="geometry"/>
                </mxCell>
                <mxCell id="bJSDkxrL3WFduaUttJcm-177" style="edgeStyle=orthogonalEdgeStyle;rounded=0;orthogonalLoop=1;jettySize=auto;html=1;entryX=0;entryY=0.75;entryDx=0;entryDy=0;" parent="WIyWlLk6GJQsqaUBKTNV-1" source="bJSDkxrL3WFduaUttJcm-152" target="bJSDkxrL3WFduaUttJcm-158" edge="1">
                    <mxGeometry relative="1" as="geometry"/>
                </mxCell>
                <mxCell id="bJSDkxrL3WFduaUttJcm-152" value="Edit" style="rounded=1;whiteSpace=wrap;html=1;absoluteArcSize=1;arcSize=14;strokeWidth=2;" parent="WIyWlLk6GJQsqaUBKTNV-1" vertex="1">
                    <mxGeometry x="505" y="842.5" width="55" height="35" as="geometry"/>
                </mxCell>
                <mxCell id="bJSDkxrL3WFduaUttJcm-153" style="edgeStyle=orthogonalEdgeStyle;rounded=0;orthogonalLoop=1;jettySize=auto;html=1;exitX=1;exitY=0.5;exitDx=0;exitDy=0;entryX=0;entryY=0.5;entryDx=0;entryDy=0;entryPerimeter=0;" parent="WIyWlLk6GJQsqaUBKTNV-1" source="bJSDkxrL3WFduaUttJcm-155" target="bJSDkxrL3WFduaUttJcm-150" edge="1">
                    <mxGeometry relative="1" as="geometry"/>
                </mxCell>
                <mxCell id="bJSDkxrL3WFduaUttJcm-154" value="GET" style="edgeLabel;html=1;align=center;verticalAlign=middle;resizable=0;points=[];" parent="bJSDkxrL3WFduaUttJcm-153" vertex="1" connectable="0">
                    <mxGeometry x="-0.3681" relative="1" as="geometry">
                        <mxPoint x="-12" as="offset"/>
                    </mxGeometry>
                </mxCell>
                <mxCell id="bJSDkxrL3WFduaUttJcm-155" value="View" style="rounded=1;whiteSpace=wrap;html=1;absoluteArcSize=1;arcSize=14;strokeWidth=2;" parent="WIyWlLk6GJQsqaUBKTNV-1" vertex="1">
                    <mxGeometry x="505" y="795" width="55" height="35" as="geometry"/>
                </mxCell>
                <mxCell id="bJSDkxrL3WFduaUttJcm-160" value="" style="edgeStyle=orthogonalEdgeStyle;rounded=0;orthogonalLoop=1;jettySize=auto;html=1;exitX=1;exitY=0.5;exitDx=0;exitDy=0;entryX=0;entryY=0.5;entryDx=0;entryDy=0;" parent="WIyWlLk6GJQsqaUBKTNV-1" source="bJSDkxrL3WFduaUttJcm-157" target="bJSDkxrL3WFduaUttJcm-159" edge="1">
                    <mxGeometry relative="1" as="geometry"/>
                </mxCell>
                <mxCell id="bJSDkxrL3WFduaUttJcm-157" value="Delete" style="rounded=1;whiteSpace=wrap;html=1;absoluteArcSize=1;arcSize=14;strokeWidth=2;" parent="WIyWlLk6GJQsqaUBKTNV-1" vertex="1">
                    <mxGeometry x="505" y="890" width="55" height="35" as="geometry"/>
                </mxCell>
                <mxCell id="bJSDkxrL3WFduaUttJcm-183" style="edgeStyle=orthogonalEdgeStyle;rounded=0;orthogonalLoop=1;jettySize=auto;html=1;entryX=0;entryY=0.5;entryDx=0;entryDy=0;" parent="WIyWlLk6GJQsqaUBKTNV-1" source="bJSDkxrL3WFduaUttJcm-158" target="bJSDkxrL3WFduaUttJcm-180" edge="1">
                    <mxGeometry relative="1" as="geometry"/>
                </mxCell>
                <mxCell id="bJSDkxrL3WFduaUttJcm-158" value="&lt;font style=&quot;font-size: 12px;&quot;&gt;Form&lt;/font&gt;" style="html=1;strokeWidth=2;shape=manualInput;whiteSpace=wrap;rounded=1;size=26;arcSize=11;spacingTop=12;" parent="WIyWlLk6GJQsqaUBKTNV-1" vertex="1">
                    <mxGeometry x="590" y="828" width="70" height="42.5" as="geometry"/>
                </mxCell>
                <mxCell id="bJSDkxrL3WFduaUttJcm-166" value="DELETE" style="edgeStyle=orthogonalEdgeStyle;rounded=0;orthogonalLoop=1;jettySize=auto;html=1;strokeColor=#FF0000;" parent="WIyWlLk6GJQsqaUBKTNV-1" source="bJSDkxrL3WFduaUttJcm-159" target="bJSDkxrL3WFduaUttJcm-113" edge="1">
                    <mxGeometry x="0.87" relative="1" as="geometry">
                        <mxPoint x="1050" y="870" as="targetPoint"/>
                        <mxPoint as="offset"/>
                    </mxGeometry>
                </mxCell>
                <mxCell id="bJSDkxrL3WFduaUttJcm-159" value="Data" style="shape=parallelogram;html=1;strokeWidth=2;perimeter=parallelogramPerimeter;whiteSpace=wrap;rounded=1;arcSize=12;size=0.23;" parent="WIyWlLk6GJQsqaUBKTNV-1" vertex="1">
                    <mxGeometry x="635" y="892.5" width="70" height="30" as="geometry"/>
                </mxCell>
                <mxCell id="bJSDkxrL3WFduaUttJcm-163" style="edgeStyle=orthogonalEdgeStyle;rounded=0;orthogonalLoop=1;jettySize=auto;html=1;entryX=0;entryY=0.5;entryDx=0;entryDy=0;" parent="WIyWlLk6GJQsqaUBKTNV-1" source="bJSDkxrL3WFduaUttJcm-161" target="bJSDkxrL3WFduaUttJcm-155" edge="1">
                    <mxGeometry relative="1" as="geometry"/>
                </mxCell>
                <mxCell id="bJSDkxrL3WFduaUttJcm-164" style="edgeStyle=orthogonalEdgeStyle;rounded=0;orthogonalLoop=1;jettySize=auto;html=1;exitX=1;exitY=0.5;exitDx=0;exitDy=0;exitPerimeter=0;entryX=0;entryY=0.5;entryDx=0;entryDy=0;" parent="WIyWlLk6GJQsqaUBKTNV-1" source="bJSDkxrL3WFduaUttJcm-161" target="bJSDkxrL3WFduaUttJcm-152" edge="1">
                    <mxGeometry relative="1" as="geometry"/>
                </mxCell>
                <mxCell id="bJSDkxrL3WFduaUttJcm-165" style="edgeStyle=orthogonalEdgeStyle;rounded=0;orthogonalLoop=1;jettySize=auto;html=1;exitX=1;exitY=0.5;exitDx=0;exitDy=0;exitPerimeter=0;entryX=0;entryY=0.5;entryDx=0;entryDy=0;" parent="WIyWlLk6GJQsqaUBKTNV-1" source="bJSDkxrL3WFduaUttJcm-161" target="bJSDkxrL3WFduaUttJcm-157" edge="1">
                    <mxGeometry relative="1" as="geometry"/>
                </mxCell>
                <mxCell id="bJSDkxrL3WFduaUttJcm-161" value="View or Edit &#10;or Delete" style="strokeWidth=2;shape=mxgraph.flowchart.decision;whiteSpace=wrap;fontSize=9;" parent="WIyWlLk6GJQsqaUBKTNV-1" vertex="1">
                    <mxGeometry x="395" y="815" width="70" height="60" as="geometry"/>
                </mxCell>
                <mxCell id="bJSDkxrL3WFduaUttJcm-167" value="" style="edgeStyle=orthogonalEdgeStyle;rounded=0;orthogonalLoop=1;jettySize=auto;html=1;exitX=0.5;exitY=1;exitDx=0;exitDy=0;exitPerimeter=0;strokeColor=#FFFF00;strokeWidth=2;entryX=0.5;entryY=0;entryDx=0;entryDy=0;entryPerimeter=0;" parent="WIyWlLk6GJQsqaUBKTNV-1" edge="1">
                    <mxGeometry relative="1" as="geometry">
                        <mxPoint x="1037" y="834.25" as="targetPoint"/>
                        <mxPoint x="1037" y="442.5" as="sourcePoint"/>
                    </mxGeometry>
                </mxCell>
                <mxCell id="bJSDkxrL3WFduaUttJcm-169" style="edgeStyle=orthogonalEdgeStyle;rounded=0;orthogonalLoop=1;jettySize=auto;html=1;entryX=0.898;entryY=0.985;entryDx=0;entryDy=0;entryPerimeter=0;strokeWidth=2;strokeColor=#FFFF00;" parent="WIyWlLk6GJQsqaUBKTNV-1" edge="1">
                    <mxGeometry relative="1" as="geometry">
                        <Array as="points">
                            <mxPoint x="1061" y="740"/>
                            <mxPoint x="1061" y="740"/>
                        </Array>
                        <mxPoint x="1061.0000000000005" y="834.25" as="sourcePoint"/>
                        <mxPoint x="1060.88" y="441.5999999999999" as="targetPoint"/>
                    </mxGeometry>
                </mxCell>
                <mxCell id="bJSDkxrL3WFduaUttJcm-170" style="edgeStyle=orthogonalEdgeStyle;rounded=0;orthogonalLoop=1;jettySize=auto;html=1;exitX=0;exitY=0.5;exitDx=0;exitDy=0;exitPerimeter=0;entryX=0.5;entryY=0;entryDx=0;entryDy=0;entryPerimeter=0;strokeColor=#0000FF;strokeWidth=2;" parent="WIyWlLk6GJQsqaUBKTNV-1" source="bJSDkxrL3WFduaUttJcm-113" target="bJSDkxrL3WFduaUttJcm-150" edge="1">
                    <mxGeometry relative="1" as="geometry">
                        <Array as="points">
                            <mxPoint x="940" y="849"/>
                            <mxPoint x="940" y="740"/>
                            <mxPoint x="670" y="740"/>
                        </Array>
                    </mxGeometry>
                </mxCell>
                <mxCell id="bJSDkxrL3WFduaUttJcm-193" value="GET" style="edgeStyle=orthogonalEdgeStyle;rounded=0;orthogonalLoop=1;jettySize=auto;html=1;entryX=0.5;entryY=1;entryDx=0;entryDy=0;entryPerimeter=0;strokeWidth=2;strokeColor=#0000ff;" parent="WIyWlLk6GJQsqaUBKTNV-1" source="bJSDkxrL3WFduaUttJcm-113" target="bJSDkxrL3WFduaUttJcm-189" edge="1">
                    <mxGeometry x="-0.9424" relative="1" as="geometry">
                        <Array as="points">
                            <mxPoint x="940" y="849"/>
                            <mxPoint x="940" y="740"/>
                            <mxPoint x="368" y="740"/>
                        </Array>
                        <mxPoint as="offset"/>
                    </mxGeometry>
                </mxCell>
                <mxCell id="bJSDkxrL3WFduaUttJcm-113" value="Get Stored Data" style="strokeWidth=2;html=1;shape=mxgraph.flowchart.stored_data;whiteSpace=wrap;" parent="WIyWlLk6GJQsqaUBKTNV-1" vertex="1">
                    <mxGeometry x="1010" y="834.25" width="80" height="30" as="geometry"/>
                </mxCell>
                <mxCell id="bJSDkxrL3WFduaUttJcm-176" style="edgeStyle=orthogonalEdgeStyle;rounded=0;orthogonalLoop=1;jettySize=auto;html=1;entryX=0.5;entryY=0.88;entryDx=0;entryDy=0;entryPerimeter=0;strokeColor=#00FF00;strokeWidth=2;" parent="WIyWlLk6GJQsqaUBKTNV-1" source="bJSDkxrL3WFduaUttJcm-171" target="bJSDkxrL3WFduaUttJcm-7" edge="1">
                    <mxGeometry relative="1" as="geometry">
                        <Array as="points">
                            <mxPoint x="790" y="1104"/>
                            <mxPoint x="790" y="490"/>
                            <mxPoint x="724" y="490"/>
                        </Array>
                    </mxGeometry>
                </mxCell>
                <mxCell id="bJSDkxrL3WFduaUttJcm-171" value="Data" style="shape=parallelogram;html=1;strokeWidth=2;perimeter=parallelogramPerimeter;whiteSpace=wrap;rounded=1;arcSize=12;size=0.23;" parent="WIyWlLk6GJQsqaUBKTNV-1" vertex="1">
                    <mxGeometry x="580" y="1090.5" width="70" height="27.5" as="geometry"/>
                </mxCell>
                <mxCell id="OyUnD8eJMNU-aTol19D6-1" style="edgeStyle=orthogonalEdgeStyle;rounded=0;orthogonalLoop=1;jettySize=auto;html=1;entryX=0.5;entryY=0.88;entryDx=0;entryDy=0;entryPerimeter=0;strokeWidth=2;strokeColor=#00ff00;" parent="WIyWlLk6GJQsqaUBKTNV-1" source="bJSDkxrL3WFduaUttJcm-180" target="bJSDkxrL3WFduaUttJcm-7" edge="1">
                    <mxGeometry relative="1" as="geometry">
                        <Array as="points">
                            <mxPoint x="790" y="850"/>
                            <mxPoint x="790" y="490"/>
                            <mxPoint x="724" y="490"/>
                        </Array>
                    </mxGeometry>
                </mxCell>
                <mxCell id="bJSDkxrL3WFduaUttJcm-180" value="Data" style="shape=parallelogram;html=1;strokeWidth=2;perimeter=parallelogramPerimeter;whiteSpace=wrap;rounded=1;arcSize=12;size=0.23;" parent="WIyWlLk6GJQsqaUBKTNV-1" vertex="1">
                    <mxGeometry x="682" y="835.75" width="70" height="27.5" as="geometry"/>
                </mxCell>
                <mxCell id="bJSDkxrL3WFduaUttJcm-200" value="POST" style="edgeStyle=orthogonalEdgeStyle;rounded=0;orthogonalLoop=1;jettySize=auto;html=1;entryX=0.5;entryY=0.88;entryDx=0;entryDy=0;entryPerimeter=0;strokeWidth=2;strokeColor=#99fd99;" parent="WIyWlLk6GJQsqaUBKTNV-1" source="bJSDkxrL3WFduaUttJcm-186" target="bJSDkxrL3WFduaUttJcm-7" edge="1">
                    <mxGeometry x="-0.1084" relative="1" as="geometry">
                        <Array as="points">
                            <mxPoint x="790" y="571"/>
                            <mxPoint x="790" y="490"/>
                            <mxPoint x="724" y="490"/>
                        </Array>
                        <mxPoint as="offset"/>
                    </mxGeometry>
                </mxCell>
                <mxCell id="bJSDkxrL3WFduaUttJcm-186" value="Data" style="shape=parallelogram;html=1;strokeWidth=2;perimeter=parallelogramPerimeter;whiteSpace=wrap;rounded=1;arcSize=12;size=0.23;" parent="WIyWlLk6GJQsqaUBKTNV-1" vertex="1">
                    <mxGeometry x="640" y="556.25" width="70" height="30" as="geometry"/>
                </mxCell>
                <mxCell id="bJSDkxrL3WFduaUttJcm-206" style="edgeStyle=orthogonalEdgeStyle;rounded=0;orthogonalLoop=1;jettySize=auto;html=1;entryX=0;entryY=0.5;entryDx=0;entryDy=0;" parent="WIyWlLk6GJQsqaUBKTNV-1" source="bJSDkxrL3WFduaUttJcm-187" target="bJSDkxrL3WFduaUttJcm-205" edge="1">
                    <mxGeometry relative="1" as="geometry"/>
                </mxCell>
                <mxCell id="bJSDkxrL3WFduaUttJcm-208" value="DELETE" style="edgeLabel;html=1;align=center;verticalAlign=middle;resizable=0;points=[];" parent="bJSDkxrL3WFduaUttJcm-206" vertex="1" connectable="0">
                    <mxGeometry x="-0.2638" y="3" relative="1" as="geometry">
                        <mxPoint x="2" y="3" as="offset"/>
                    </mxGeometry>
                </mxCell>
                <mxCell id="bJSDkxrL3WFduaUttJcm-187" value="Log out" style="rounded=1;whiteSpace=wrap;html=1;absoluteArcSize=1;arcSize=14;strokeWidth=2;" parent="WIyWlLk6GJQsqaUBKTNV-1" vertex="1">
                    <mxGeometry x="437.75" y="620" width="55" height="35" as="geometry"/>
                </mxCell>
                <mxCell id="bJSDkxrL3WFduaUttJcm-199" style="edgeStyle=orthogonalEdgeStyle;rounded=0;orthogonalLoop=1;jettySize=auto;html=1;entryX=0.504;entryY=0.335;entryDx=0;entryDy=0;entryPerimeter=0;" parent="WIyWlLk6GJQsqaUBKTNV-1" source="bJSDkxrL3WFduaUttJcm-188" target="bJSDkxrL3WFduaUttJcm-194" edge="1">
                    <mxGeometry relative="1" as="geometry"/>
                </mxCell>
                <mxCell id="bJSDkxrL3WFduaUttJcm-188" value="Edit" style="rounded=1;whiteSpace=wrap;html=1;absoluteArcSize=1;arcSize=14;strokeWidth=2;" parent="WIyWlLk6GJQsqaUBKTNV-1" vertex="1">
                    <mxGeometry x="540" y="477.5" width="55" height="35" as="geometry"/>
                </mxCell>
                <mxCell id="bJSDkxrL3WFduaUttJcm-196" style="edgeStyle=orthogonalEdgeStyle;rounded=0;orthogonalLoop=1;jettySize=auto;html=1;entryX=0;entryY=0.5;entryDx=0;entryDy=0;entryPerimeter=0;" parent="WIyWlLk6GJQsqaUBKTNV-1" source="bJSDkxrL3WFduaUttJcm-189" target="bJSDkxrL3WFduaUttJcm-34" edge="1">
                    <mxGeometry relative="1" as="geometry"/>
                </mxCell>
                <mxCell id="bJSDkxrL3WFduaUttJcm-189" value="&lt;span style=&quot;font-size: 10px;&quot;&gt;Display&lt;/span&gt;" style="strokeWidth=2;html=1;shape=mxgraph.flowchart.display;whiteSpace=wrap;" parent="WIyWlLk6GJQsqaUBKTNV-1" vertex="1">
                    <mxGeometry x="327.5" y="470" width="80" height="50" as="geometry"/>
                </mxCell>
                <mxCell id="bJSDkxrL3WFduaUttJcm-192" style="edgeStyle=orthogonalEdgeStyle;rounded=0;orthogonalLoop=1;jettySize=auto;html=1;entryX=0.5;entryY=0;entryDx=0;entryDy=0;entryPerimeter=0;" parent="WIyWlLk6GJQsqaUBKTNV-1" source="bJSDkxrL3WFduaUttJcm-190" target="bJSDkxrL3WFduaUttJcm-189" edge="1">
                    <mxGeometry relative="1" as="geometry"/>
                </mxCell>
                <mxCell id="bJSDkxrL3WFduaUttJcm-190" value="Account" style="rounded=1;whiteSpace=wrap;html=1;absoluteArcSize=1;arcSize=14;strokeWidth=2;" parent="WIyWlLk6GJQsqaUBKTNV-1" vertex="1">
                    <mxGeometry x="340" y="387.25" width="55" height="35" as="geometry"/>
                </mxCell>
                <mxCell id="bJSDkxrL3WFduaUttJcm-195" style="edgeStyle=orthogonalEdgeStyle;rounded=0;orthogonalLoop=1;jettySize=auto;html=1;entryX=0;entryY=0.5;entryDx=0;entryDy=0;" parent="WIyWlLk6GJQsqaUBKTNV-1" source="bJSDkxrL3WFduaUttJcm-194" target="bJSDkxrL3WFduaUttJcm-186" edge="1">
                    <mxGeometry relative="1" as="geometry"/>
                </mxCell>
                <mxCell id="bJSDkxrL3WFduaUttJcm-194" value="&lt;font style=&quot;font-size: 12px;&quot;&gt;Form&lt;/font&gt;" style="html=1;strokeWidth=2;shape=manualInput;whiteSpace=wrap;rounded=1;size=26;arcSize=11;spacingTop=12;" parent="WIyWlLk6GJQsqaUBKTNV-1" vertex="1">
                    <mxGeometry x="532.5" y="550" width="70" height="42.5" as="geometry"/>
                </mxCell>
                <mxCell id="bJSDkxrL3WFduaUttJcm-207" style="edgeStyle=orthogonalEdgeStyle;rounded=0;orthogonalLoop=1;jettySize=auto;html=1;entryX=0;entryY=0.5;entryDx=0;entryDy=0;entryPerimeter=0;strokeWidth=2;strokeColor=#FF9933;" parent="WIyWlLk6GJQsqaUBKTNV-1" source="bJSDkxrL3WFduaUttJcm-205" target="bJSDkxrL3WFduaUttJcm-3" edge="1">
                    <mxGeometry relative="1" as="geometry">
                        <mxPoint x="10" y="240" as="targetPoint"/>
                        <Array as="points">
                            <mxPoint x="595" y="690"/>
                            <mxPoint x="10" y="690"/>
                            <mxPoint x="10" y="245"/>
                        </Array>
                    </mxGeometry>
                </mxCell>
                <mxCell id="bJSDkxrL3WFduaUttJcm-205" value="SESSION" style="rounded=1;whiteSpace=wrap;html=1;absoluteArcSize=1;arcSize=14;strokeWidth=2;" parent="WIyWlLk6GJQsqaUBKTNV-1" vertex="1">
                    <mxGeometry x="561.25" y="620" width="70" height="35" as="geometry"/>
                </mxCell>
                <mxCell id="30" style="edgeStyle=none;html=1;entryX=1;entryY=0.578;entryDx=0;entryDy=0;entryPerimeter=0;" edge="1" parent="WIyWlLk6GJQsqaUBKTNV-1" source="7" target="19">
                    <mxGeometry relative="1" as="geometry">
                        <mxPoint x="-578" y="767.75" as="targetPoint"/>
                    </mxGeometry>
                </mxCell>
                <mxCell id="7" value="Data" style="shape=parallelogram;html=1;strokeWidth=2;perimeter=parallelogramPerimeter;whiteSpace=wrap;rounded=1;arcSize=12;size=0.23;" vertex="1" parent="WIyWlLk6GJQsqaUBKTNV-1">
                    <mxGeometry x="-558" y="740" width="70" height="30" as="geometry"/>
                </mxCell>
                <mxCell id="9" value="Model for Books" style="rounded=1;whiteSpace=wrap;html=1;absoluteArcSize=1;arcSize=14;strokeWidth=2;" vertex="1" parent="WIyWlLk6GJQsqaUBKTNV-1">
                    <mxGeometry x="-458" y="675" width="100" height="35" as="geometry"/>
                </mxCell>
                <mxCell id="26" style="edgeStyle=none;html=1;entryX=1;entryY=0.5;entryDx=0;entryDy=0;" edge="1" parent="WIyWlLk6GJQsqaUBKTNV-1" source="13" target="15">
                    <mxGeometry relative="1" as="geometry"/>
                </mxCell>
                <mxCell id="27" style="edgeStyle=none;html=1;entryX=1;entryY=0.5;entryDx=0;entryDy=0;" edge="1" parent="WIyWlLk6GJQsqaUBKTNV-1" source="13" target="9">
                    <mxGeometry relative="1" as="geometry"/>
                </mxCell>
                <mxCell id="28" style="edgeStyle=none;html=1;entryX=1;entryY=0.5;entryDx=0;entryDy=0;" edge="1" parent="WIyWlLk6GJQsqaUBKTNV-1" source="13" target="17">
                    <mxGeometry relative="1" as="geometry"/>
                </mxCell>
                <mxCell id="13" value="Models" style="strokeWidth=2;html=1;shape=mxgraph.flowchart.multi-document;whiteSpace=wrap;" vertex="1" parent="WIyWlLk6GJQsqaUBKTNV-1">
                    <mxGeometry x="-308" y="722.5" width="88" height="60" as="geometry"/>
                </mxCell>
                <mxCell id="29" style="edgeStyle=none;html=1;entryX=1;entryY=0.5;entryDx=0;entryDy=0;" edge="1" parent="WIyWlLk6GJQsqaUBKTNV-1" source="15" target="7">
                    <mxGeometry relative="1" as="geometry"/>
                </mxCell>
                <mxCell id="15" value="Model for Authors" style="rounded=1;whiteSpace=wrap;html=1;absoluteArcSize=1;arcSize=14;strokeWidth=2;" vertex="1" parent="WIyWlLk6GJQsqaUBKTNV-1">
                    <mxGeometry x="-458" y="735" width="100" height="35" as="geometry"/>
                </mxCell>
                <mxCell id="17" value="Model for Users" style="rounded=1;whiteSpace=wrap;html=1;absoluteArcSize=1;arcSize=14;strokeWidth=2;" vertex="1" parent="WIyWlLk6GJQsqaUBKTNV-1">
                    <mxGeometry x="-458" y="795" width="100" height="35" as="geometry"/>
                </mxCell>
                <mxCell id="19" value="MongoDB" style="strokeWidth=2;html=1;shape=mxgraph.flowchart.database;whiteSpace=wrap;" vertex="1" parent="WIyWlLk6GJQsqaUBKTNV-1">
                    <mxGeometry x="-648" y="722.5" width="60" height="60" as="geometry"/>
                </mxCell>
                <mxCell id="36" style="edgeStyle=none;html=1;entryX=1;entryY=0;entryDx=0;entryDy=0;" edge="1" parent="WIyWlLk6GJQsqaUBKTNV-1" source="22" target="32">
                    <mxGeometry relative="1" as="geometry">
                        <mxPoint x="-200" y="100" as="targetPoint"/>
                    </mxGeometry>
                </mxCell>
                <mxCell id="22" value="POSTMAN" style="strokeWidth=2;html=1;shape=mxgraph.flowchart.display;whiteSpace=wrap;" vertex="1" parent="WIyWlLk6GJQsqaUBKTNV-1">
                    <mxGeometry x="-220" y="35" width="80" height="50" as="geometry"/>
                </mxCell>
                <mxCell id="23" value="Put&amp;nbsp;" style="rounded=1;whiteSpace=wrap;html=1;absoluteArcSize=1;arcSize=14;strokeWidth=2;" vertex="1" parent="WIyWlLk6GJQsqaUBKTNV-1">
                    <mxGeometry x="-520" y="376.5" width="80" height="35" as="geometry"/>
                </mxCell>
                <mxCell id="24" value="Author" style="strokeWidth=2;shape=mxgraph.flowchart.decision;whiteSpace=wrap;fontSize=10;" vertex="1" parent="WIyWlLk6GJQsqaUBKTNV-1">
                    <mxGeometry x="-605" y="172.5" width="95" height="87" as="geometry"/>
                </mxCell>
                <mxCell id="39" style="edgeStyle=none;html=1;" edge="1" parent="WIyWlLk6GJQsqaUBKTNV-1" source="32">
                    <mxGeometry relative="1" as="geometry">
                        <mxPoint x="-560" y="170" as="targetPoint"/>
                    </mxGeometry>
                </mxCell>
                <mxCell id="40" style="edgeStyle=none;html=1;" edge="1" parent="WIyWlLk6GJQsqaUBKTNV-1" source="32">
                    <mxGeometry relative="1" as="geometry">
                        <mxPoint x="-410" y="170" as="targetPoint"/>
                    </mxGeometry>
                </mxCell>
                <mxCell id="41" style="edgeStyle=none;html=1;entryX=0.5;entryY=0;entryDx=0;entryDy=0;entryPerimeter=0;" edge="1" parent="WIyWlLk6GJQsqaUBKTNV-1" source="32" target="34">
                    <mxGeometry relative="1" as="geometry"/>
                </mxCell>
                <mxCell id="32" value="API" style="rounded=1;whiteSpace=wrap;html=1;absoluteArcSize=1;arcSize=14;strokeWidth=2;" vertex="1" parent="WIyWlLk6GJQsqaUBKTNV-1">
                    <mxGeometry x="-450" y="105" width="80" height="35" as="geometry"/>
                </mxCell>
                <mxCell id="33" value="User" style="strokeWidth=2;shape=mxgraph.flowchart.decision;whiteSpace=wrap;fontSize=10;" vertex="1" parent="WIyWlLk6GJQsqaUBKTNV-1">
                    <mxGeometry x="-457.5" y="175.5" width="95" height="87" as="geometry"/>
                </mxCell>
                <mxCell id="34" value="Login" style="strokeWidth=2;shape=mxgraph.flowchart.decision;whiteSpace=wrap;fontSize=10;" vertex="1" parent="WIyWlLk6GJQsqaUBKTNV-1">
                    <mxGeometry x="-300" y="175.5" width="95" height="87" as="geometry"/>
                </mxCell>
                <mxCell id="42" value="Delete" style="rounded=1;whiteSpace=wrap;html=1;absoluteArcSize=1;arcSize=14;strokeWidth=2;" vertex="1" parent="WIyWlLk6GJQsqaUBKTNV-1">
                    <mxGeometry x="-520" y="416.5" width="80" height="35" as="geometry"/>
                </mxCell>
                <mxCell id="43" value="Post" style="rounded=1;whiteSpace=wrap;html=1;absoluteArcSize=1;arcSize=14;strokeWidth=2;" vertex="1" parent="WIyWlLk6GJQsqaUBKTNV-1">
                    <mxGeometry x="-520" y="339" width="80" height="35" as="geometry"/>
                </mxCell>
            </root>
        </mxGraphModel>
    </diagram>
</mxfile>